HIERARCHY
ROOT root     
{
	OFFSET 0.0000 0.0000 0.0000
	CHANNELS 6 Xposition Yposition Zposition Zrotation Yrotation Xrotation
	JOINT pelvis   
	{
		OFFSET 0.0000 0.0000 0.0000
		CHANNELS 3 Zrotation Yrotation Xrotation
		JOINT thorax   
		{
			OFFSET 0.0000 23.0750 -5.0000
			CHANNELS 3 Zrotation Yrotation Xrotation
			JOINT rclavicle
			{
				OFFSET 0.0000 28.0009 0.0000
				CHANNELS 3 Zrotation Yrotation Xrotation
				JOINT rhumerus 
				{
					OFFSET -18.5725 5.5939 0.0000
					CHANNELS 3 Zrotation Yrotation Xrotation
					JOINT rradius  
					{
						OFFSET -24.8459 0.0000 0.0000
						CHANNELS 3 Zrotation Yrotation Xrotation
						JOINT rhand    
						{
							OFFSET -24.5477 0.0000 0.0000
							CHANNELS 3 Zrotation Yrotation Xrotation
							End Site
							{
								OFFSET -8.1826 0.0000 0.0000
							}
						}
					}
				}
			}
			JOINT lclavicle
			{
				OFFSET 0.0000 28.0009 0.0000
				CHANNELS 3 Zrotation Yrotation Xrotation
				JOINT lhumerus 
				{
					OFFSET 18.5725 5.5939 0.0000
					CHANNELS 3 Zrotation Yrotation Xrotation
					JOINT lradius  
					{
						OFFSET 24.8459 0.0000 0.0000
						CHANNELS 3 Zrotation Yrotation Xrotation
						JOINT lhand    
						{
							OFFSET 24.5477 0.0000 0.0000
							CHANNELS 3 Zrotation Yrotation Xrotation
							End Site
							{
								OFFSET 8.1826 0.0000 0.0000
							}
						}
					}
				}
			}
			JOINT head     
			{
				OFFSET 0.0000 35.2030 0.0000
				CHANNELS 3 Zrotation Yrotation Xrotation
				End Site
				{
					OFFSET 0.0000 11.7343 0.0000
				}
			}
		}
		JOINT rfemur   
		{
			OFFSET -8.2817 0.0000 0.0000
			CHANNELS 3 Zrotation Yrotation Xrotation
			JOINT rtibia   
			{
				OFFSET 0.0000 -43.3627 0.0000
				CHANNELS 3 Zrotation Yrotation Xrotation
				JOINT rfoot    
				{
					OFFSET 0.0000 -38.2947 0.0000
					CHANNELS 3 Zrotation Yrotation Xrotation
					JOINT rtoes    
					{
						OFFSET 0.0000 0.0000 16.6054
						CHANNELS 3 Zrotation Yrotation Xrotation
						End Site
						{
							OFFSET 0.0000 0.0000 5.5351
						}
					}
				}
			}
		}
		JOINT lfemur   
		{
			OFFSET 8.2817 0.0000 0.0000
			CHANNELS 3 Zrotation Yrotation Xrotation
			JOINT ltibia   
			{
				OFFSET 0.0000 -43.3627 0.0000
				CHANNELS 3 Zrotation Yrotation Xrotation
				JOINT lfoot    
				{
					OFFSET 0.0000 -38.2947 0.0000
					CHANNELS 3 Zrotation Yrotation Xrotation
					JOINT ltoes    
					{
						OFFSET 0.0000 0.0000 16.6054
						CHANNELS 3 Zrotation Yrotation Xrotation
						End Site
						{
							OFFSET 0.0000 0.0000 5.5351
						}
					}
				}
			}
		}
	}
}
MOTION
Frames: 19
Frame Time: .0333333
-20.243 82.977 -14.027 17.9502 74.3692 36.1211 0 -0 0 -8.78694 -2.20528 -9.94621 27.1306 -9.07247 2.88945e-05 43.2431 5.96132 25.8952 -7.41173e-06 85.8147 -7.6603e-06 8.57774 5.26712 0.395305 -26.7569 16.6383 -8.95301e-06 -51.4864 24.4194 -7.54829 0 -72.0201 0 13.7338 1.80254 0.2171 12.6554 -3.6385 -3.99952 -9.14568 -1.59929 -9.66289 -0 -0 42.8521 -3.21948e-06 22.431 8.20985 3.37363 -3.99065e-05 -66.2579 -5.33492 1.84811 -42.8004 -0 -0 25.4756 1.92864e-05 -7.2436 11.5602 -1.45906 1.01207e-05 -30.981 
-19.421 82.868 -14.074 18.6236 73.6287 36.813 0 -0 0 -9.35649 -2.24544 -10.046 27.3832 -8.74527 -5.02936e-05 44.7698 5.87346 24.3414 -0 84.24 -0 8.03039 5.34577 0.375489 -27.2828 16.6199 0.000107846 -50.6812 23.4356 -7.43908 0 -70.6198 0 14.5908 2.09005 0.267602 12.6272 -3.91379 -3.5515 -10.0601 -1.64869 -10.4842 -0 -0 44.8164 -3.43146e-05 23.1576 8.97985 3.81952 -3.61238e-05 -65.9609 -5.99055 2.0419 -43.0445 -0 -0 27.1789 1.42511e-06 -6.47391 10.7147 -1.2086 -8.68604e-07 -28.2516 
-18.623 82.843 -14.104 19.0238 72.827 37.2048 0 -0 0 -9.86568 -2.20022 -10.0967 27.5874 -8.43466 2.2613e-05 46.5502 5.80719 22.676 -4.34896e-06 82.4456 -4.50555e-06 7.16413 5.36218 0.335894 -27.823 16.5867 -0.000103608 -49.8654 22.231 -7.2376 6.74832e-07 -69.0033 -9.81826e-07 15.2979 2.33339 0.3134 12.4876 -4.21556 -3.0642 -10.8859 -1.54259 -11.352 -0 -0 46.7378 5.13748e-05 23.5349 9.8922 4.27908 4.15864e-05 -65.1309 -6.4926 2.12055 -43.0224 -0 -0 28.4366 4.65064e-06 -5.55863 9.74012 -0.943294 -3.81246e-07 -26.3994 
-17.842 82.899 -14.111 19.1124 71.9838 37.2464 0 -0 0 -10.2847 -2.06776 -10.0935 27.749 -8.14693 -5.25436e-06 48.5129 5.77614 20.9308 -0 80.5184 -0 5.93996 5.30208 0.275298 -28.3596 16.5297 4.17217e-05 -49.0969 20.8583 -6.987 -9.18507e-07 -67.2282 6.10588e-07 15.8318 2.5165 0.349989 12.2467 -4.54715 -2.55275 -11.5894 -1.29288 -12.2373 -0 -0 48.5922 -7.35174e-05 23.4916 10.8949 4.69621 -5.02369e-06 -63.8434 -6.85158 2.1441 -42.7414 -0 -0 29.2517 7.40713e-06 -4.59585 8.70812 -0.697308 1.59156e-06 -25.4445 
-17.071 83.029 -14.09 18.8912 71.1107 36.9322 0 -0 0 -10.5924 -1.85582 -10.0325 27.8774 -7.89067 1.31897e-05 50.5729 5.79157 19.1576 -0 78.5088 -0 4.32095 5.15482 0.194598 -28.8675 16.4494 -0.000154922 -48.4262 19.3754 -6.72145 0 -65.3538 0 16.1816 2.62821 0.373717 11.9227 -4.91149 -2.03176 -12.1462 -0.925879 -13.1097 -0 -0 50.3533 4.49069e-06 22.9768 11.9324 5.01007 3.23836e-06 -62.2437 -7.08139 2.16414 -42.215 -0 -0 29.6504 -1.42624e-06 -3.65573 7.69248 -0.489999 4.22671e-07 -25.2842 
-16.304 83.221 -14.04 18.3922 70.2268 36.2866 0 -0 0 -10.7791 -1.58329 -9.9115 27.9858 -7.67621 4.59781e-05 52.6329 5.86673 17.4282 -0 76.5065 -0 2.28318 4.9126 0.0979995 -29.3187 16.3466 -0.000176175 -47.9007 17.8396 -6.4653 0 -63.4453 0 16.3465 2.66342 0.382602 11.5444 -5.31127 -1.51489 -12.5434 -0.478821 -13.9381 -0 -0 52.0043 8.2152e-05 21.9598 12.9495 5.16277 -5.50039e-05 -60.5297 -7.19983 2.21998 -41.464 -0 -0 29.6757 6.95137e-07 -2.78201 6.767 -0.328103 -2.09226e-06 -25.7567 
-15.536 83.461 -13.955 17.6439 69.352 35.3409 0 -0 0 -10.8295 -1.2779 -9.7382 28.079 -7.50052 -3.01008e-05 54.6117 5.98177 15.8129 -1.37577e-06 74.5812 -1.80656e-06 -0.157896 4.5734 -0.00629985 -29.6932 16.2074 -7.5893e-05 -47.5542 16.3399 -6.24689 -7.7085e-07 -61.5957 4.59479e-07 16.3438 2.62825 0.377515 11.1433 -5.74789 -1.0094 -12.7627 0.0111213 -14.7014 -0 -0 53.5255 -8.46181e-07 20.4252 13.8935 5.10989 8.97939e-06 -58.9158 -7.219 2.34734 -40.5207 -0 -0 29.3887 -1.89871e-06 -2.00682 5.99163 -0.209606 -1.24988e-06 -26.6531 
-14.763 83.736 -13.84 16.7258 68.4994 34.1786 0 -0 0 -10.7575 -0.977898 -9.5172 28.1701 -7.37514 -6.02688e-06 56.4272 6.13543 14.4039 -1.21062e-06 72.7883 -1.64237e-06 -2.95371 4.13836 -0.106701 -29.96 16.0451 -2.78492e-05 -47.4117 14.9202 -6.06418 0 -59.8695 0 16.2012 2.5308 0.360304 10.7597 -6.22143 -0.522706 -12.817 0.492372 -15.3799 -0 -0 54.9014 -4.70194e-05 18.396 14.7132 4.8283 5.4439e-05 -57.5402 -7.16293 2.5547 -39.4122 -0 -0 28.8464 -1.09309e-06 -1.33342 5.41425 -0.125795 4.49909e-07 -27.7638 
-13.987 84.033 -13.695 15.6931 67.6898 32.863 0 -0 0 -10.5733 -0.725807 -9.26276 28.2638 -7.29823 -5.97474e-05 58.0206 6.30301 13.2709 -1.07584e-06 71.1739 -7.6986e-07 -5.99696 3.61619 -0.189493 -30.1015 15.86 0.00019879 -47.4796 13.6385 -5.91481 0 -58.337 0 15.9558 2.38638 0.334492 10.43 -6.72976 -0.0564988 -12.7151 0.919951 -15.9622 -0 -0 56.1185 -3.25175e-05 15.9189 15.356 4.31923 4.60658e-06 -56.4433 -7.0496 2.8468 -38.1779 -0 -0 28.1176 -1.69018e-07 -0.761999 5.05691 -0.0672004 -9.28192e-09 -28.8831 
-13.21 84.34 -13.524 14.6024 66.9408 31.4721 0 -0 0 -10.2905 -0.5656 -8.99848 28.3578 -7.26342 1.2067e-05 59.3571 6.45137 12.4589 -9.98212e-07 69.7669 -1.43183e-06 -9.13034 3.02465 -0.241598 -30.1143 15.6412 -0.00015944 -47.7449 12.56 -5.79346 0 -57.073 0 15.6497 2.21468 0.304386 10.1856 -7.26923 0.393305 -12.4693 1.25225 -16.4558 -0 -0 57.1666 -0.000147808 13.0708 15.7717 3.61109 -1.07498e-05 -55.5438 -6.89497 3.21842 -36.866 -0 -0 27.272 1.34634e-07 -0.286297 4.91551 -0.0245005 -9.58742e-08 -29.8387 
-12.435 84.648 -13.331 13.5097 66.2663 30.0768 0 -0 0 -9.93301 -0.538392 -8.7394 28.4588 -7.26846 2.94518e-05 60.4087 6.55724 12.0053 -0 68.5801 -0 -12.1822 2.38322 -0.254309 -29.9898 15.4104 0.000107207 -48.1883 11.68 -5.66466 0 -56.0999 0 15.3255 2.02981 0.273095 10.0536 -7.83377 0.827968 -12.1068 1.45145 -16.8646 -0 -0 58.0379 1.34824e-05 9.96548 15.9203 2.7593 -2.37434e-06 -54.6579 -6.71777 3.65271 -35.52 -0 -0 26.3635 -8.19495e-08 0.1072 4.96488 0.00929997 -1.32835e-08 -30.5248 
-11.669 84.951 -13.123 12.4485 65.6845 28.7331 0 -0 0 -9.51931 -0.676904 -8.51318 28.5638 -7.31304 1.98946e-05 61.1706 6.60507 11.9222 -9.31419e-07 67.6136 -6.23703e-07 -14.9675 1.72339 -0.226399 -29.7443 15.1538 0.000154081 -48.7643 11.0399 -5.5121 0 -55.4564 0 15.0189 1.84839 0.2437 10.0486 -8.41601 1.25476 -11.65 1.49378 -17.2103 -0 -0 58.7285 5.75721e-06 6.73638 15.7807 1.83979 -1.82567e-06 -53.6033 -6.52908 4.1314 -34.1885 -0 -0 25.4449 1.40585e-07 0.429398 5.1592 0.0386005 4.32125e-08 -30.8828 
-10.916 85.242 -12.903 11.448 65.1984 27.4868 0 -0 0 -9.07004 -1.00101 -8.33317 28.6811 -7.38178 -4.17181e-05 61.6404 6.56949 12.1881 -5.99003e-07 66.8794 -9.07097e-07 -17.3208 1.0775 -0.164101 -29.3895 14.8965 8.11323e-05 -49.4285 10.6002 -5.29175 0 -55.1269 0 14.7592 1.67652 0.217103 10.1758 -9.00806 1.67606 -11.1236 1.36671 -17.5112 -0 -0 59.2376 -1.68652e-05 3.5337 15.3581 0.936996 5.63894e-06 -52.2413 -6.33952 4.63356 -32.9055 -0 -0 24.5505 5.4837e-08 0.691596 5.44222 0.0655996 -1.5149e-08 -30.9238 
-10.184 85.52 -12.678 10.5188 64.8172 26.3633 0 -0 0 -8.59972 -1.517 -8.21785 28.8121 -7.48379 4.43273e-05 61.8286 6.46399 12.7854 -0 66.3459 -0 -19.1019 0.490299 -0.0824988 -28.9563 14.6264 -8.5282e-05 -50.1217 10.3605 -4.98283 0 -55.1077 0 14.564 1.52001 0.194197 10.428 -9.60167 2.09616 -10.5495 1.07223 -17.7918 -0 -0 59.5666 -1.93837e-06 0.503099 14.6943 0.127605 2.20302e-06 -50.5411 -6.15536 5.13944 -31.7054 -0 -0 23.7036 -1.09253e-07 0.902606 5.75449 0.0904991 -1.5628e-07 -30.7039 
-9.4747 85.784 -12.45 9.66821 64.5284 25.3807 0 -0 0 -8.1188 -2.21498 -8.17292 28.966 -7.62446 1.04376e-05 61.7418 6.30705 13.6758 -0 66.0001 -0 -20.2037 0.0105001 -0.00189997 -28.4732 14.3459 6.66633e-05 -50.7878 10.2895 -4.56214 4.9356e-07 -55.3686 -9.40716e-07 14.4409 1.37787 0.174596 10.7871 -10.1895 2.51504 -9.94795 0.624001 -18.0726 -0 -0 59.7205 4.88531e-07 -2.22883 13.8561 -0.533997 6.33199e-06 -48.5648 -5.98013 5.63212 -30.6041 -0 -0 22.9102 -4.4637e-07 1.0692 6.04437 0.112601 -3.20684e-07 -30.3147 
-8.7917 86.033 -12.224 8.88874 64.3246 24.5292 0 -0 0 -7.63423 -3.0712 -8.1974 29.1471 -7.78538 -1.43163e-05 61.4044 6.08995 14.7724 -8.01357e-07 65.831 -1.23794e-06 -20.536 -0.307394 0.0556991 -27.9639 14.0704 -1.17531e-05 -51.3797 10.3289 -4.0048 0 -55.8534 0 14.3861 1.24231 0.156798 11.2284 -10.7646 2.93101 -9.33472 0.0453317 -18.3676 -0 -0 59.705 -7.31479e-06 -4.56701 12.9282 -1.02379 5.27236e-06 -46.4498 -5.81645 6.10251 -29.6062 -0 -0 22.1649 -2.52773e-06 1.19506 6.27228 0.130601 4.8816e-08 -29.8676 
-8.1349 86.269 -12.001 8.17548 64.183 23.8015 0 -0 0 -7.14728 -4.04939 -8.28412 29.3565 -7.96488 -2.00844e-05 60.8388 5.83338 15.9983 -0 65.8237 -0 -20.0482 -0.411499 0.0726981 -27.4555 13.7982 2.23368e-05 -51.8567 10.4354 -3.30173 0 -56.5124 0 14.3868 1.1061 0.1396 11.7204 -11.3224 3.3392 -8.72169 -0.633885 -18.6839 -0 -0 59.5316 -2.80895e-05 -6.45322 11.9962 -1.34674 -1.38081e-05 -44.3501 -5.66545 6.54848 -28.7031 -0 -0 21.4554 5.14645e-08 1.28099 6.41642 0.143206 1.04067e-06 -29.4693 
-7.5024 86.491 -11.783 7.51848 64.0761 23.1794 0 -0 0 -6.66021 -5.10634 -8.42177 29.5998 -8.19733 4.03974e-05 60.0715 5.60481 17.3226 -5.6904e-07 65.9143 -8.77687e-07 -18.7485 -0.2713 0.0447995 -26.9744 13.5148 7.73236e-06 -52.1847 10.5908 -2.46459 0 -57.3178 0 14.4196 0.965804 0.122198 12.2296 -11.859 3.73176 -8.12164 -1.38163 -19.0285 -0 -0 59.2084 6.14298e-06 -7.86369 11.1377 -1.52824 1.44956e-05 -42.4353 -5.52983 6.9739 -27.8818 -0 -0 20.7628 1.36126e-06 1.32763 6.4739 0.149703 1.45199e-07 -29.2093 
-6.8905 86.699 -11.571 6.90376 63.9766 22.6329 0 -0 0 -6.17066 -6.19345 -8.59222 29.8669 -8.43466 -2.1883e-06 59.1485 5.36151 18.606 -5.75253e-07 66.1208 -8.8378e-07 -16.6536 0.120301 -0.0175995 -26.5256 13.2413 -0.000105689 -52.3517 10.7227 -1.48501 0 -58.1979 0 14.462 0.811103 0.102905 12.7257 -12.3729 4.10113 -7.54109 -2.16439 -19.3929 -0 -0 58.7495 1.6408e-06 -8.80523 10.4083 -1.60302 7.72347e-08 -40.8029 -5.41052 7.39776 -27.117 -0 -0 20.0722 -8.59543e-07 1.3275 6.45461 0.149303 1.65452e-06 -29.1511 
